<mxfile host="Electron" modified="2023-05-25T13:57:05.530Z" agent="Mozilla/5.0 (Windows NT 10.0; Win64; x64) AppleWebKit/537.36 (KHTML, like Gecko) draw.io/21.2.8 Chrome/112.0.5615.165 Electron/24.2.0 Safari/537.36" etag="TchEfcbQrpfLc8sPdNX0" version="21.2.8" type="device">
  <diagram name="Page-1" id="OqWzBLvPhR0_q-68RrfR">
    <mxGraphModel dx="1127" dy="841" grid="1" gridSize="10" guides="1" tooltips="1" connect="1" arrows="1" fold="1" page="1" pageScale="1" pageWidth="850" pageHeight="1100" math="0" shadow="0">
      <root>
        <mxCell id="0" />
        <mxCell id="1" parent="0" />
        <mxCell id="y4EJnCdbSmaFh7ZVaviH-50" value="" style="group" vertex="1" connectable="0" parent="1">
          <mxGeometry x="238" y="80" width="375" height="290" as="geometry" />
        </mxCell>
        <mxCell id="y4EJnCdbSmaFh7ZVaviH-11" value="" style="rounded=1;whiteSpace=wrap;html=1;direction=south;fillColor=#ffcd28;strokeColor=#d79b00;gradientColor=#ffa500;" vertex="1" parent="y4EJnCdbSmaFh7ZVaviH-50">
          <mxGeometry width="375" height="290" as="geometry" />
        </mxCell>
        <mxCell id="y4EJnCdbSmaFh7ZVaviH-2" value="Place Order" style="ellipse;whiteSpace=wrap;html=1;" vertex="1" parent="y4EJnCdbSmaFh7ZVaviH-50">
          <mxGeometry x="111.5" y="50" width="152" height="70" as="geometry" />
        </mxCell>
        <mxCell id="y4EJnCdbSmaFh7ZVaviH-12" value="Prepare Order" style="ellipse;whiteSpace=wrap;html=1;" vertex="1" parent="y4EJnCdbSmaFh7ZVaviH-50">
          <mxGeometry x="111.5" y="180" width="152" height="70" as="geometry" />
        </mxCell>
        <mxCell id="y4EJnCdbSmaFh7ZVaviH-1" value="Restaurant Patron" style="shape=umlActor;verticalLabelPosition=bottom;verticalAlign=top;html=1;" vertex="1" parent="1">
          <mxGeometry x="80" y="150" width="30" height="60" as="geometry" />
        </mxCell>
        <mxCell id="y4EJnCdbSmaFh7ZVaviH-9" value="" style="endArrow=open;endSize=12;dashed=1;html=1;rounded=0;" edge="1" parent="1" source="y4EJnCdbSmaFh7ZVaviH-1" target="y4EJnCdbSmaFh7ZVaviH-2">
          <mxGeometry x="-0.0053" width="160" relative="1" as="geometry">
            <mxPoint x="120" y="270" as="sourcePoint" />
            <mxPoint x="280" y="270" as="targetPoint" />
            <mxPoint as="offset" />
          </mxGeometry>
        </mxCell>
        <mxCell id="y4EJnCdbSmaFh7ZVaviH-10" value="Early Adopting &lt;br&gt;Restaurant Owner" style="shape=umlActor;verticalLabelPosition=bottom;verticalAlign=top;html=1;" vertex="1" parent="1">
          <mxGeometry x="720" y="210" width="30" height="60" as="geometry" />
        </mxCell>
        <mxCell id="y4EJnCdbSmaFh7ZVaviH-13" value="" style="endArrow=open;endSize=12;dashed=1;html=1;rounded=0;" edge="1" parent="1" source="y4EJnCdbSmaFh7ZVaviH-10" target="y4EJnCdbSmaFh7ZVaviH-12">
          <mxGeometry x="-0.0053" width="160" relative="1" as="geometry">
            <mxPoint x="715" y="280" as="sourcePoint" />
            <mxPoint x="766" y="300" as="targetPoint" />
            <mxPoint as="offset" />
          </mxGeometry>
        </mxCell>
        <mxCell id="y4EJnCdbSmaFh7ZVaviH-14" value="&lt;font style=&quot;font-size: 18px;&quot;&gt;Menu Ordering Case Diagram&lt;/font&gt;" style="text;html=1;strokeColor=none;fillColor=none;align=center;verticalAlign=middle;whiteSpace=wrap;rounded=0;" vertex="1" parent="1">
          <mxGeometry x="280" y="10" width="290" height="50" as="geometry" />
        </mxCell>
        <mxCell id="y4EJnCdbSmaFh7ZVaviH-15" value="&lt;font style=&quot;font-size: 18px;&quot;&gt;Place Order Activity Diagram&lt;/font&gt;" style="text;html=1;strokeColor=none;fillColor=none;align=center;verticalAlign=middle;whiteSpace=wrap;rounded=0;" vertex="1" parent="1">
          <mxGeometry x="280" y="410" width="290" height="50" as="geometry" />
        </mxCell>
        <mxCell id="y4EJnCdbSmaFh7ZVaviH-17" value="" style="line;strokeWidth=2;fillColor=none;align=left;verticalAlign=middle;spacingTop=-1;spacingLeft=3;spacingRight=3;rotatable=0;labelPosition=right;points=[];portConstraint=eastwest;strokeColor=inherit;" vertex="1" parent="1">
          <mxGeometry x="10" y="382" width="830" height="28" as="geometry" />
        </mxCell>
        <mxCell id="y4EJnCdbSmaFh7ZVaviH-18" value="" style="ellipse;html=1;shape=startState;fillColor=#000000;strokeColor=#ff0000;" vertex="1" parent="1">
          <mxGeometry x="410" y="470" width="30" height="30" as="geometry" />
        </mxCell>
        <mxCell id="y4EJnCdbSmaFh7ZVaviH-19" value="" style="edgeStyle=orthogonalEdgeStyle;html=1;verticalAlign=bottom;endArrow=open;endSize=8;strokeColor=#ff0000;rounded=0;" edge="1" source="y4EJnCdbSmaFh7ZVaviH-18" parent="1" target="y4EJnCdbSmaFh7ZVaviH-21">
          <mxGeometry relative="1" as="geometry">
            <mxPoint x="85" y="630" as="targetPoint" />
          </mxGeometry>
        </mxCell>
        <mxCell id="y4EJnCdbSmaFh7ZVaviH-21" value="QR Code Scanned" style="html=1;whiteSpace=wrap;rounded=1;arcSize=46;" vertex="1" parent="1">
          <mxGeometry x="355" y="530" width="140" height="60" as="geometry" />
        </mxCell>
        <mxCell id="y4EJnCdbSmaFh7ZVaviH-23" value="Check In" style="html=1;whiteSpace=wrap;rounded=1;arcSize=46;" vertex="1" parent="1">
          <mxGeometry x="460" y="620" width="140" height="60" as="geometry" />
        </mxCell>
        <mxCell id="y4EJnCdbSmaFh7ZVaviH-24" value="" style="endArrow=open;html=1;rounded=0;endFill=0;" edge="1" parent="1" source="y4EJnCdbSmaFh7ZVaviH-21" target="y4EJnCdbSmaFh7ZVaviH-23">
          <mxGeometry width="50" height="50" relative="1" as="geometry">
            <mxPoint x="410" y="690" as="sourcePoint" />
            <mxPoint x="425.72" y="635.6640000000002" as="targetPoint" />
          </mxGeometry>
        </mxCell>
        <mxCell id="y4EJnCdbSmaFh7ZVaviH-25" value="Get Available&lt;br&gt;Item Menus" style="html=1;whiteSpace=wrap;rounded=1;arcSize=46;" vertex="1" parent="1">
          <mxGeometry x="260" y="620" width="140" height="60" as="geometry" />
        </mxCell>
        <mxCell id="y4EJnCdbSmaFh7ZVaviH-30" value="" style="endArrow=open;html=1;rounded=0;endFill=0;" edge="1" parent="1" source="y4EJnCdbSmaFh7ZVaviH-23" target="y4EJnCdbSmaFh7ZVaviH-25">
          <mxGeometry width="50" height="50" relative="1" as="geometry">
            <mxPoint x="320.68000000000006" y="634" as="sourcePoint" />
            <mxPoint x="435" y="680" as="targetPoint" />
          </mxGeometry>
        </mxCell>
        <mxCell id="y4EJnCdbSmaFh7ZVaviH-34" value="Show Available&lt;br&gt;&amp;nbsp;Menu Items" style="html=1;whiteSpace=wrap;rounded=1;arcSize=46;" vertex="1" parent="1">
          <mxGeometry x="355.5" y="710" width="140" height="60" as="geometry" />
        </mxCell>
        <mxCell id="y4EJnCdbSmaFh7ZVaviH-35" value="" style="endArrow=open;html=1;rounded=0;endFill=0;" edge="1" parent="1" source="y4EJnCdbSmaFh7ZVaviH-25" target="y4EJnCdbSmaFh7ZVaviH-34">
          <mxGeometry width="50" height="50" relative="1" as="geometry">
            <mxPoint x="426.3000000000002" y="875.6640000000002" as="sourcePoint" />
            <mxPoint x="580" y="885" as="targetPoint" />
          </mxGeometry>
        </mxCell>
        <mxCell id="y4EJnCdbSmaFh7ZVaviH-46" value="" style="endArrow=open;html=1;rounded=0;endFill=0;" edge="1" parent="1" source="y4EJnCdbSmaFh7ZVaviH-34" target="y4EJnCdbSmaFh7ZVaviH-47">
          <mxGeometry width="50" height="50" relative="1" as="geometry">
            <mxPoint x="435" y="800" as="sourcePoint" />
            <mxPoint x="425" y="840" as="targetPoint" />
          </mxGeometry>
        </mxCell>
        <mxCell id="y4EJnCdbSmaFh7ZVaviH-47" value="Choose from Available&lt;br&gt;&amp;nbsp;Menu Items" style="html=1;whiteSpace=wrap;rounded=1;arcSize=46;" vertex="1" parent="1">
          <mxGeometry x="220" y="800" width="140" height="60" as="geometry" />
        </mxCell>
        <mxCell id="y4EJnCdbSmaFh7ZVaviH-48" value="Add Item to Order" style="html=1;whiteSpace=wrap;rounded=1;arcSize=46;" vertex="1" parent="1">
          <mxGeometry x="485" y="800" width="140" height="60" as="geometry" />
        </mxCell>
        <mxCell id="y4EJnCdbSmaFh7ZVaviH-49" value="" style="endArrow=open;html=1;rounded=0;endFill=0;" edge="1" parent="1" source="y4EJnCdbSmaFh7ZVaviH-47" target="y4EJnCdbSmaFh7ZVaviH-48">
          <mxGeometry width="50" height="50" relative="1" as="geometry">
            <mxPoint x="435" y="800" as="sourcePoint" />
            <mxPoint x="550" y="840" as="targetPoint" />
          </mxGeometry>
        </mxCell>
        <mxCell id="y4EJnCdbSmaFh7ZVaviH-51" value="All Items Added?" style="rhombus;whiteSpace=wrap;html=1;fontColor=#000000;fillColor=#ffffc0;strokeColor=#ff0000;" vertex="1" parent="1">
          <mxGeometry x="490" y="900" width="130" height="60" as="geometry" />
        </mxCell>
        <mxCell id="y4EJnCdbSmaFh7ZVaviH-52" value="" style="edgeStyle=orthogonalEdgeStyle;html=1;align=left;verticalAlign=bottom;endArrow=open;endSize=8;strokeColor=#ff0000;rounded=0;spacing=2;" edge="1" source="y4EJnCdbSmaFh7ZVaviH-51" parent="1" target="y4EJnCdbSmaFh7ZVaviH-47">
          <mxGeometry x="-1" relative="1" as="geometry">
            <mxPoint x="700" y="850" as="targetPoint" />
            <mxPoint x="450" y="910" as="sourcePoint" />
            <Array as="points">
              <mxPoint x="285" y="930" />
            </Array>
          </mxGeometry>
        </mxCell>
        <mxCell id="y4EJnCdbSmaFh7ZVaviH-68" value="No" style="edgeLabel;html=1;align=center;verticalAlign=middle;resizable=0;points=[];" vertex="1" connectable="0" parent="y4EJnCdbSmaFh7ZVaviH-52">
          <mxGeometry x="-0.5046" relative="1" as="geometry">
            <mxPoint x="48" y="-10" as="offset" />
          </mxGeometry>
        </mxCell>
        <mxCell id="y4EJnCdbSmaFh7ZVaviH-53" value="Yes" style="edgeStyle=orthogonalEdgeStyle;html=1;align=left;verticalAlign=top;endArrow=open;endSize=8;strokeColor=#ff0000;rounded=0;" edge="1" source="y4EJnCdbSmaFh7ZVaviH-51" parent="1" target="y4EJnCdbSmaFh7ZVaviH-59">
          <mxGeometry x="-1" relative="1" as="geometry">
            <mxPoint x="550" y="1060" as="targetPoint" />
            <Array as="points">
              <mxPoint x="555" y="1020" />
            </Array>
          </mxGeometry>
        </mxCell>
        <mxCell id="y4EJnCdbSmaFh7ZVaviH-58" value="" style="endArrow=open;html=1;rounded=0;endFill=0;" edge="1" parent="1" source="y4EJnCdbSmaFh7ZVaviH-48" target="y4EJnCdbSmaFh7ZVaviH-51">
          <mxGeometry width="50" height="50" relative="1" as="geometry">
            <mxPoint x="677" y="840" as="sourcePoint" />
            <mxPoint x="720" y="890" as="targetPoint" />
          </mxGeometry>
        </mxCell>
        <mxCell id="y4EJnCdbSmaFh7ZVaviH-66" value="" style="edgeStyle=orthogonalEdgeStyle;rounded=0;orthogonalLoop=1;jettySize=auto;html=1;" edge="1" parent="1" source="y4EJnCdbSmaFh7ZVaviH-59" target="y4EJnCdbSmaFh7ZVaviH-65">
          <mxGeometry relative="1" as="geometry" />
        </mxCell>
        <mxCell id="y4EJnCdbSmaFh7ZVaviH-59" value="Submit Order" style="html=1;whiteSpace=wrap;rounded=1;arcSize=46;" vertex="1" parent="1">
          <mxGeometry x="485" y="1005" width="140" height="60" as="geometry" />
        </mxCell>
        <mxCell id="y4EJnCdbSmaFh7ZVaviH-61" value="" style="ellipse;html=1;shape=endState;fillColor=#000000;strokeColor=#ff0000;" vertex="1" parent="1">
          <mxGeometry x="150" y="1020" width="30" height="30" as="geometry" />
        </mxCell>
        <mxCell id="y4EJnCdbSmaFh7ZVaviH-71" value="" style="edgeStyle=orthogonalEdgeStyle;rounded=0;orthogonalLoop=1;jettySize=auto;html=1;" edge="1" parent="1" source="y4EJnCdbSmaFh7ZVaviH-65" target="y4EJnCdbSmaFh7ZVaviH-61">
          <mxGeometry relative="1" as="geometry" />
        </mxCell>
        <mxCell id="y4EJnCdbSmaFh7ZVaviH-65" value="Prompt for Payment" style="html=1;whiteSpace=wrap;rounded=1;arcSize=46;" vertex="1" parent="1">
          <mxGeometry x="220" y="1005" width="140" height="60" as="geometry" />
        </mxCell>
      </root>
    </mxGraphModel>
  </diagram>
</mxfile>
